<svg id="_01-front-end" data-name="01-front-end" xmlns="http://www.w3.org/2000/svg" viewBox="0 0 77.16 77.16"><defs><style>.cls-1{fill:#4158d0}.cls-3{fill:#ffcc70}</style></defs><g id="Group_4" data-name="Group 4" transform="translate(0 2.489)"><path id="Path_6" data-name="Path 6" class="cls-1" d="M38.58 28.445H0V16h38.58v2.489H2.489v7.467H38.58z" transform="translate(0 -16)"/><path id="Rectangle_12" data-name="Rectangle 12" class="cls-1" transform="translate(4.978 4.978)" d="M0 0h2.489v2.489H0z"/><path id="Rectangle_13" data-name="Rectangle 13" class="cls-1" transform="translate(9.956 4.978)" d="M0 0h2.489v2.489H0z"/><path id="Rectangle_14" data-name="Rectangle 14" class="cls-1" transform="translate(14.934 4.978)" d="M0 0h2.489v2.489H0z"/></g><path id="Rectangle_15" data-name="Rectangle 15" transform="translate(6.223 24.89)" fill="#ffcb57" d="M0 0h32.357v34.846H0z"/><g id="Group_5" data-name="Group 5" transform="translate(42.313 2.489)"><path id="Path_7" data-name="Path 7" class="cls-1" d="M306.846 28.445H272v-2.489h32.357v-7.467H272V16h34.846z" transform="translate(-272 -16)"/><path id="Rectangle_16" data-name="Rectangle 16" class="cls-3" transform="translate(0 21.157)" d="M0 0h2.489v2.489H0z"/><path id="Rectangle_17" data-name="Rectangle 17" class="cls-3" transform="translate(27.379 21.157)" d="M0 0h2.489v2.489H0z"/><path id="Rectangle_18" data-name="Rectangle 18" class="cls-3" transform="translate(27.379 31.113)" d="M0 0h2.489v2.489H0z"/><path id="Rectangle_19" data-name="Rectangle 19" class="cls-3" transform="translate(17.423 36.091)" d="M0 0h2.489v2.489H0z"/><path id="Rectangle_20" data-name="Rectangle 20" class="cls-3" transform="translate(12.445 36.091)" d="M0 0h2.489v2.489H0z"/><path id="Rectangle_21" data-name="Rectangle 21" class="cls-3" transform="translate(0 36.091)" d="M0 0h2.489v2.489H0z"/><path id="Rectangle_22" data-name="Rectangle 22" class="cls-3" transform="translate(9.956 46.047)" d="M0 0h2.489v2.489H0z"/><path id="Rectangle_23" data-name="Rectangle 23" class="cls-3" transform="translate(0 56.003)" d="M0 0h2.489v2.489H0z"/><path id="Rectangle_24" data-name="Rectangle 24" class="cls-3" transform="translate(27.379 56.003)" d="M0 0h2.489v2.489H0z"/></g><g id="Group_6" data-name="Group 6"><path id="Path_8" data-name="Path 8" class="cls-1" d="M304.357 112v54.759H272v2.489h34.846V112z" transform="translate(-229.687 -94.577)"/><path id="Path_9" data-name="Path 9" class="cls-1" d="M37.335 23.646H4.978v37.335h32.357v11.2H2.489V17.423H0v57.248h37.335v2.489h2.489V0h-2.489zm-4.248 16.178l4.249 4.249v9.441H16.373l11.584-13.69zm1.03-2.489h-2.892a7.476 7.476 0 0 1 6.111-6.111v9.329zM7.467 58.492V26.135h29.868v2.575a9.965 9.965 0 0 0-8.626 8.626H26.8L13.112 53.514H9.956V56h27.379v2.489z"/><path id="Rectangle_25" data-name="Rectangle 25" class="cls-1" transform="translate(47.291 23.646)" d="M0 0h11.201v2.489H0z"/><path id="Rectangle_26" data-name="Rectangle 26" class="cls-1" transform="translate(60.981 23.646)" d="M0 0h6.223v2.489H0z"/><path id="Rectangle_27" data-name="Rectangle 27" class="cls-1" transform="translate(42.313 28.624)" d="M0 0h4.978v2.489H0z"/><path id="Rectangle_28" data-name="Rectangle 28" class="cls-1" transform="translate(49.781 28.624)" d="M0 0h6.223v2.489H0z"/><path id="Rectangle_29" data-name="Rectangle 29" class="cls-1" transform="translate(58.492 28.624)" d="M0 0h6.223v2.489H0z"/><path id="Rectangle_30" data-name="Rectangle 30" class="cls-1" transform="translate(67.204 28.624)" d="M0 0h4.978v2.489H0z"/><path id="Rectangle_31" data-name="Rectangle 31" class="cls-1" transform="translate(42.313 33.602)" d="M0 0h24.89v2.489H0z"/><path id="Rectangle_32" data-name="Rectangle 32" class="cls-1" transform="translate(64.715 38.58)" d="M0 0h7.467v2.489H0z"/><path id="Rectangle_33" data-name="Rectangle 33" class="cls-1" transform="translate(47.291 38.58)" d="M0 0h4.978v2.489H0z"/><path id="Rectangle_34" data-name="Rectangle 34" class="cls-1" transform="translate(42.313 43.558)" d="M0 0h9.956v2.489H0z"/><path id="Rectangle_35" data-name="Rectangle 35" class="cls-1" transform="translate(54.759 43.558)" d="M0 0h4.978v2.489H0z"/><path id="Rectangle_36" data-name="Rectangle 36" class="cls-1" transform="translate(62.226 43.558)" d="M0 0h4.978v2.489H0z"/><path id="Rectangle_37" data-name="Rectangle 37" class="cls-1" transform="translate(69.693 43.558)" d="M0 0h2.489v2.489H0z"/><path id="Rectangle_38" data-name="Rectangle 38" class="cls-1" transform="translate(42.313 48.536)" d="M0 0h7.467v2.489H0z"/><path id="Rectangle_39" data-name="Rectangle 39" class="cls-1" transform="translate(57.248 48.536)" d="M0 0h4.978v2.489H0z"/><path id="Rectangle_40" data-name="Rectangle 40" class="cls-1" transform="translate(64.715 48.536)" d="M0 0h7.467v2.489H0z"/><path id="Rectangle_41" data-name="Rectangle 41" class="cls-1" transform="translate(42.313 53.514)" d="M0 0h14.934v2.489H0z"/><path id="Rectangle_42" data-name="Rectangle 42" class="cls-1" transform="translate(59.737 53.514)" d="M0 0h4.978v2.489H0z"/><path id="Rectangle_43" data-name="Rectangle 43" class="cls-1" transform="translate(67.204 53.514)" d="M0 0h4.978v2.489H0z"/><path id="Rectangle_44" data-name="Rectangle 44" class="cls-1" transform="translate(47.291 58.492)" d="M0 0h4.978v2.489H0z"/><path id="Rectangle_45" data-name="Rectangle 45" class="cls-1" transform="translate(54.759 58.492)" d="M0 0h4.978v2.489H0z"/><path id="Rectangle_46" data-name="Rectangle 46" class="cls-1" transform="translate(62.226 58.492)" d="M0 0h4.978v2.489H0z"/></g></svg>