<svg id="_01cms" data-name="01cms" xmlns="http://www.w3.org/2000/svg" viewBox="0 0 77.9 77.9"><defs><style>.cls-1{fill:#ffcc70}.cls-2{fill:#4158d0}</style></defs><g id="Group_15" data-name="Group 15" transform="translate(1.256 36.437)"><path id="Path_43" data-name="Path 43" class="cls-1" d="M49.463 424H9.256A1.257 1.257 0 0 0 8 425.256v7.544a1.257 1.257 0 0 0 1.256 1.256h40.207a1.257 1.257 0 0 0 1.256-1.256v-7.539A1.257 1.257 0 0 0 49.463 424z" transform="translate(-8 -393.845)"/><path id="Path_44" data-name="Path 44" class="cls-1" d="M49.463 328H9.256A1.257 1.257 0 0 0 8 329.256v7.544a1.257 1.257 0 0 0 1.256 1.256h40.207a1.257 1.257 0 0 0 1.256-1.256v-7.539A1.257 1.257 0 0 0 49.463 328z" transform="translate(-8 -312.923)"/><path id="Path_45" data-name="Path 45" class="cls-1" d="M49.463 232H9.256A1.257 1.257 0 0 0 8 233.256v7.544a1.257 1.257 0 0 0 1.256 1.256h40.207a1.257 1.257 0 0 0 1.256-1.256v-7.539A1.257 1.257 0 0 0 49.463 232z" transform="translate(-8 -232)"/></g><g id="Group_16" data-name="Group 16" transform="translate(22.616)"><path id="Path_46" data-name="Path 46" class="cls-2" d="M199.284 12.565H144V0h55.284zm-52.771-2.513h50.258V2.513h-50.258z" transform="translate(-144)"/><path id="Rectangle_57" data-name="Rectangle 57" class="cls-2" transform="translate(5.026 5.026)" d="M0 0h2.513v2.513H0z"/><path id="Rectangle_58" data-name="Rectangle 58" class="cls-2" transform="translate(10.052 5.026)" d="M0 0h2.513v2.513H0z"/></g><path id="Path_47" data-name="Path 47" class="cls-1" d="M320.012 263.625a16.247 16.247 0 0 0-2.412-5.825l1.5-2.508-3.553-3.553-2.508 1.5a16.238 16.238 0 0 0-5.821-2.414l-.705-2.825H304v12.565a6.282 6.282 0 1 1 0 12.565v12.565h2.513l.709-2.835a16.248 16.248 0 0 0 5.821-2.414l2.508 1.5 3.549-3.546-1.5-2.508a16.238 16.238 0 0 0 2.414-5.821l2.833-.707v-5.026z" transform="translate(-256.255 -209.05)"/><g id="Group_17" data-name="Group 17" transform="translate(37.694 5.026)"><path id="Rectangle_59" data-name="Rectangle 59" class="cls-2" d="M0 0h2.513v2.513H0z"/><path id="Rectangle_60" data-name="Rectangle 60" class="cls-2" transform="translate(17.59 15.077)" d="M0 0h12.565v2.513H0z"/><path id="Rectangle_61" data-name="Rectangle 61" class="cls-2" transform="translate(17.59 20.103)" d="M0 0h12.565v2.513H0z"/></g><g id="Group_18" data-name="Group 18" transform="translate(0 15.077)"><path id="Rectangle_62" data-name="Rectangle 62" class="cls-2" transform="translate(22.616)" d="M0 0h2.513v17.59H0z"/><path id="Path_48" data-name="Path 48" class="cls-2" d="M453.026 96v36.437H448v2.513h7.539V96z" transform="translate(-377.639 -96)"/><path id="Path_49" data-name="Path 49" class="cls-2" d="M42.719 224H2.513A2.515 2.515 0 0 0 0 226.513v7.539a2.515 2.515 0 0 0 2.513 2.513h1.256v2.513H2.513A2.515 2.515 0 0 0 0 241.59v7.539a2.515 2.515 0 0 0 2.513 2.513h1.256v2.513H2.513A2.515 2.515 0 0 0 0 256.668v7.539a2.515 2.515 0 0 0 2.513 2.513h40.206a2.515 2.515 0 0 0 2.513-2.513v-7.539a2.515 2.515 0 0 0-2.513-2.513h-1.256v-2.513h1.256a2.515 2.515 0 0 0 2.513-2.513v-7.539a2.515 2.515 0 0 0-2.513-2.513h-1.256v-2.513h1.256a2.515 2.515 0 0 0 2.513-2.513v-7.539A2.515 2.515 0 0 0 42.719 224zm0 40.206H2.513v-7.539h40.206zm-3.769-10.051H6.282v-2.513H38.95zm3.769-5.026H2.513v-7.539h40.206zm-3.769-10.052H6.282v-2.513H38.95zm3.769-5.026H2.513v-7.539h40.206z" transform="translate(0 -203.897)"/><path id="Path_50" data-name="Path 50" class="cls-2" d="M319.075 251.043l1.611-2.685-4.942-4.94-2.684 1.61a17.366 17.366 0 0 0-4.808-1.994l-.758-3.034H304v2.513h1.532l.663 2.654.779.156a14.9 14.9 0 0 1 5.37 2.226l.661.441 2.348-1.408 2.166 2.167-1.41 2.348.441.661a14.925 14.925 0 0 1 2.228 5.37l.156.779 2.656.665v3.063l-2.654.663-.156.779a14.916 14.916 0 0 1-2.228 5.37l-.441.661 1.41 2.348-2.166 2.167-2.348-1.408-.661.441a14.9 14.9 0 0 1-5.37 2.226l-.779.156-.666 2.655H304v2.513h3.494l.759-3.034a17.382 17.382 0 0 0 4.808-1.994l2.684 1.609 4.942-4.94-1.611-2.685a17.366 17.366 0 0 0 1.994-4.808l3.033-.756v-6.988l-3.034-.758a17.366 17.366 0 0 0-1.994-4.809z" transform="translate(-256.255 -217.384)"/><path id="Path_51" data-name="Path 51" class="cls-2" d="M342.616 96H320v17.59h22.616zm-2.516 15.077h-17.59V98.513h17.59z" transform="translate(-269.742 -96)"/><path id="Rectangle_63" data-name="Rectangle 63" class="cls-2" transform="translate(27.642)" d="M0 0h2.513v2.513H0z"/><path id="Rectangle_64" data-name="Rectangle 64" class="cls-2" transform="translate(32.668)" d="M0 0h15.077v2.513H0z"/><path id="Rectangle_65" data-name="Rectangle 65" class="cls-2" transform="translate(27.642 5.026)" d="M0 0h20.103v2.513H0z"/><path id="Rectangle_66" data-name="Rectangle 66" class="cls-2" transform="translate(27.642 10.052)" d="M0 0h20.103v2.513H0z"/><path id="Rectangle_67" data-name="Rectangle 67" class="cls-2" transform="translate(27.642 15.077)" d="M0 0h15.077v2.513H0z"/><path id="Rectangle_68" data-name="Rectangle 68" class="cls-2" transform="translate(45.232 15.077)" d="M0 0h2.513v2.513H0z"/><path id="Path_52" data-name="Path 52" class="cls-2" d="M304 332.565v2.513A7.539 7.539 0 1 0 304 320v2.513a5.026 5.026 0 0 1 0 10.052z" transform="translate(-256.255 -284.819)"/><path id="Path_53" data-name="Path 53" class="cls-2" d="M304 313.129A12.565 12.565 0 0 0 304 288v2.513a10.052 10.052 0 1 1 0 20.1z" transform="translate(-256.255 -257.845)"/></g></svg>