<svg id="_01research" data-name="01research" xmlns="http://www.w3.org/2000/svg" viewBox="0 0 63.246 77.16"><defs><style>.cls-1{fill:#ffcc70}.cls-2{fill:#4057ce}</style></defs><g id="Group_4" data-name="Group 4" transform="translate(2.53 13.914)"><path id="Path_6" data-name="Path 6" class="cls-1" d="M176.649 100.649V88a12.649 12.649 0 1 0 11.106 18.707z" transform="translate(-147.556 -88)"/><path id="Path_7" data-name="Path 7" class="cls-1" d="M66.325 420.649a6.325 6.325 0 1 1 6.325-6.325 6.332 6.332 0 0 1-6.325 6.325z" transform="translate(-60 -357.403)"/><path id="Path_8" data-name="Path 8" class="cls-1" d="M362.325 356.649a6.325 6.325 0 1 1 6.325-6.325 6.332 6.332 0 0 1-6.325 6.325z" transform="translate(-309.198 -303.523)"/></g><g id="Group_5" data-name="Group 5"><path id="Path_9" data-name="Path 9" class="cls-2" d="M183.828 93.914a13.914 13.914 0 1 0-13.914 13.914 13.93 13.93 0 0 0 13.914-13.914zm-2.53 0a11.318 11.318 0 0 1-.882 4.388l-9.238-5.133V82.6A11.4 11.4 0 0 1 181.3 93.914zm-22.768 0A11.4 11.4 0 0 1 168.649 82.6v12.059l10.528 5.848a11.372 11.372 0 0 1-20.647-6.593z" transform="translate(-138.291 -67.351)"/><path id="Path_10" data-name="Path 10" class="cls-2" d="M91.646 36.683H94.6a12.65 12.65 0 0 0 1.042-25.257 13.913 13.913 0 0 0-24.726-5.988 11.275 11.275 0 0 0-2.883-.378 11.458 11.458 0 0 0-10.218 6.385 11.571 11.571 0 0 0-1.166-.061 12.649 12.649 0 1 0 0 25.3H59.6a19.023 19.023 0 0 0 10.963 8.149v4.5h-3.795v2.53H69.3v18.972a6.325 6.325 0 1 0 12.649 0V51.861h2.53v-2.53h-3.796v-4.5a19.023 19.023 0 0 0 10.963-8.148zM81.947 2.53a11.337 11.337 0 0 1 11.326 10.248l.177 1.136h1.15a10.119 10.119 0 1 1 0 20.239H93A18.912 18.912 0 0 0 72.276 7.9l.191-.287a11.37 11.37 0 0 1 9.48-5.083zm-25.3 31.623a10.12 10.12 0 1 1 1.728-20.079l1.023.177.372-.97a8.817 8.817 0 0 1 11.22-5.174l.127.046a18.928 18.928 0 0 0-12.874 26zm2.53-7.589a16.444 16.444 0 1 1 16.446 16.443 16.463 16.463 0 0 1-16.444-16.444zm20.241 44.271a3.795 3.795 0 1 1-7.589 0V51.861h7.589zm-1.265-21.5h-5.06v-3.987a17.073 17.073 0 0 0 5.06 0z" transform="translate(-44)"/><path id="Rectangle_12" data-name="Rectangle 12" class="cls-2" transform="translate(3.795 43.007)" d="M0 0h2.53v18.974H0z"/><path id="Rectangle_13" data-name="Rectangle 13" class="cls-2" transform="translate(3.795 37.947)" d="M0 0h2.53v2.53H0z"/><path id="Rectangle_14" data-name="Rectangle 14" class="cls-2" transform="translate(11.384 46.802)" d="M0 0h2.53v15.179H0z"/><path id="Rectangle_15" data-name="Rectangle 15" class="cls-2" transform="translate(11.384 41.742)" d="M0 0h2.53v2.53H0z"/><path id="Rectangle_16" data-name="Rectangle 16" class="cls-2" transform="translate(50.597 45.537)" d="M0 0h2.53v6.325H0z"/><path id="Rectangle_17" data-name="Rectangle 17" class="cls-2" transform="translate(50.597 40.477)" d="M0 0h2.53v2.53H0z"/><path id="Rectangle_18" data-name="Rectangle 18" class="cls-2" transform="translate(58.186 41.742)" d="M0 0h2.53v10.119H0z"/><path id="Rectangle_19" data-name="Rectangle 19" class="cls-2" transform="translate(58.186 36.683)" d="M0 0h2.53v2.53H0z"/></g></svg>