<svg id="_02mobile" data-name="02mobile" xmlns="http://www.w3.org/2000/svg" viewBox="0 0 77.903 77.903"><defs><style>.cls-2{fill:#ffcc70}.cls-3{fill:#4158d0}</style></defs><path id="Rectangle_12" data-name="Rectangle 12" transform="translate(17.591 28.9)" fill="#ffcb57" d="M0 0h47.747v15.078H0z"/><g id="Group_4" data-name="Group 4" transform="translate(22.617 21.361)"><path id="Rectangle_13" data-name="Rectangle 13" class="cls-2" transform="translate(0 5.026)" d="M0 0h2.513v2.513H0z"/><path id="Rectangle_14" data-name="Rectangle 14" class="cls-2" transform="translate(22.617 5.026)" d="M0 0h2.513v2.513H0z"/><path id="Rectangle_15" data-name="Rectangle 15" class="cls-2" transform="translate(35.182 5.026)" d="M0 0h2.513v2.513H0z"/><path id="Rectangle_16" data-name="Rectangle 16" class="cls-2" transform="translate(15.078)" d="M0 0h2.513v2.513H0z"/><path id="Rectangle_17" data-name="Rectangle 17" class="cls-2" transform="translate(20.104)" d="M0 0h2.513v2.513H0z"/><path id="Rectangle_18" data-name="Rectangle 18" class="cls-2" transform="translate(7.539 22.617)" d="M0 0h2.513v2.513H0z"/><path id="Rectangle_19" data-name="Rectangle 19" class="cls-2" transform="translate(12.565 22.617)" d="M0 0h2.513v2.513H0z"/><path id="Rectangle_20" data-name="Rectangle 20" class="cls-2" transform="translate(0 27.643)" d="M0 0h2.513v2.513H0z"/><path id="Rectangle_21" data-name="Rectangle 21" class="cls-2" transform="translate(15.078 27.643)" d="M0 0h2.513v2.513H0z"/><path id="Rectangle_22" data-name="Rectangle 22" class="cls-2" transform="translate(35.182 27.643)" d="M0 0h2.513v2.513H0z"/></g><g id="Group_5" data-name="Group 5"><path id="Path_6" data-name="Path 6" class="cls-3" d="M2.513 10.052H50.26v2.513h2.513V6.283A6.29 6.29 0 0 0 46.491 0H6.283A6.29 6.29 0 0 0 0 6.283v56.542h2.513zm3.77-7.539h40.208a3.774 3.774 0 0 1 3.77 3.77v1.256H2.513V6.283a3.774 3.774 0 0 1 3.77-3.77z"/><path id="Path_7" data-name="Path 7" class="cls-3" d="M0 422.283a6.29 6.29 0 0 0 6.283 6.283h40.208a6.29 6.29 0 0 0 6.283-6.283V416H0zm2.513-3.77H50.26v3.77a3.774 3.774 0 0 1-3.77 3.77H6.283a3.774 3.774 0 0 1-3.77-3.77z" transform="translate(0 -350.662)"/><path id="Rectangle_23" data-name="Rectangle 23" class="cls-3" transform="translate(21.361 70.364)" d="M0 0h10.052v2.513H0z"/><path id="Path_8" data-name="Path 8" class="cls-3" d="M32 96v42.721h72.877V96zm70.364 40.208H34.513v-37.7h67.851z" transform="translate(-26.974 -80.922)"/><path id="Rectangle_24" data-name="Rectangle 24" class="cls-3" transform="translate(50.26 60.312)" d="M0 0h2.513v2.513H0z"/><path id="Path_9" data-name="Path 9" class="cls-3" d="M151.539 206.283h-2.513v1.257h-2.513v-5.026h2.513v1.257h2.513V200H144v10.052h7.539z" transform="translate(-121.383 -168.587)"/><path id="Path_10" data-name="Path 10" class="cls-3" d="M215.539 200H208v10.052h7.539zm-2.513 7.539h-2.513v-5.026h2.513z" transform="translate(-175.331 -168.587)"/><path id="Path_11" data-name="Path 11" class="cls-3" d="M272 210.052h3.77a3.774 3.774 0 0 0 3.77-3.77v-2.512a3.774 3.774 0 0 0-3.77-3.77H272zm2.513-7.539h1.257a1.257 1.257 0 0 1 1.257 1.257v2.513a1.257 1.257 0 0 1-1.257 1.257h-1.257z" transform="translate(-229.279 -168.587)"/><path id="Path_12" data-name="Path 12" class="cls-3" d="M336 210.052h7.539v-2.513h-5.026v-1.257h5.026v-2.512h-5.026v-1.257h5.026V200H336z" transform="translate(-283.227 -168.587)"/><path id="Rectangle_25" data-name="Rectangle 25" class="cls-3" transform="translate(27.643 26.387)" d="M0 0h5.026v2.513H0z"/><path id="Rectangle_26" data-name="Rectangle 26" class="cls-3" transform="translate(35.182 26.387)" d="M0 0h7.539v2.513H0z"/><path id="Rectangle_27" data-name="Rectangle 27" class="cls-3" transform="translate(50.26 26.387)" d="M0 0h5.026v2.513H0z"/><path id="Rectangle_28" data-name="Rectangle 28" class="cls-3" transform="translate(22.617 21.361)" d="M0 0h5.026v2.513H0z"/><path id="Rectangle_29" data-name="Rectangle 29" class="cls-3" transform="translate(30.156 21.361)" d="M0 0h5.026v2.513H0z"/><path id="Rectangle_30" data-name="Rectangle 30" class="cls-3" transform="translate(47.747 21.361)" d="M0 0h5.026v2.513H0z"/><path id="Rectangle_31" data-name="Rectangle 31" class="cls-3" transform="translate(55.286 21.361)" d="M0 0h5.026v2.513H0z"/><path id="Rectangle_32" data-name="Rectangle 32" class="cls-3" transform="translate(22.617 43.978)" d="M0 0h5.026v2.513H0z"/><path id="Rectangle_33" data-name="Rectangle 33" class="cls-3" transform="translate(40.208 43.978)" d="M0 0h5.026v2.513H0z"/><path id="Rectangle_34" data-name="Rectangle 34" class="cls-3" transform="translate(47.747 43.978)" d="M0 0h5.026v2.513H0z"/><path id="Rectangle_35" data-name="Rectangle 35" class="cls-3" transform="translate(55.286 43.978)" d="M0 0h5.026v2.513H0z"/><path id="Rectangle_36" data-name="Rectangle 36" class="cls-3" transform="translate(27.643 49.004)" d="M0 0h7.539v2.513H0z"/><path id="Rectangle_37" data-name="Rectangle 37" class="cls-3" transform="translate(42.721 49.004)" d="M0 0h5.026v2.513H0z"/><path id="Rectangle_38" data-name="Rectangle 38" class="cls-3" transform="translate(50.26 49.004)" d="M0 0h5.026v2.513H0z"/></g></svg>