<svg id="_02plan" data-name="02plan" xmlns="http://www.w3.org/2000/svg" viewBox="0 0 79.735 77.163"><defs><style>.cls-1{fill:#4158d0}</style></defs><g id="Group_6" data-name="Group 6" transform="translate(0 1.286)"><path id="Path_11" data-name="Path 11" class="cls-1" d="M72.662 16h-4.5v10.288H43.726v5.144h1.286A2.575 2.575 0 0 1 47.584 34v4.549a5.105 5.105 0 0 0-2.572-.691h-1.286v2.572h1.286a2.575 2.575 0 0 1 2.572 2.572h2.572V34a5.149 5.149 0 0 0-5.144-5.144h23.149V80.3h4.5a4.5 4.5 0 0 1 0 9H2.572V28.86h24.435A5.149 5.149 0 0 0 21.863 34v9h2.572a2.575 2.575 0 0 1 2.572-2.572h1.286v-2.565h-1.286a5.105 5.105 0 0 0-2.572.691V34a2.575 2.575 0 0 1 2.572-2.572h1.286v-5.14H0v65.589h72.662a7.082 7.082 0 0 0 7.073-7.077V23.073A7.082 7.082 0 0 0 72.662 16zm0 61.73h-1.929V18.572h1.929a4.506 4.506 0 0 1 4.5 4.5v56.28a7.044 7.044 0 0 0-4.5-1.622z" transform="translate(0 -16)"/><path id="Rectangle_21" data-name="Rectangle 21" class="cls-1" transform="translate(34.723 24.435)" d="M0 0h2.572v10.288H0z"/><path id="Rectangle_22" data-name="Rectangle 22" class="cls-1" transform="translate(34.723 37.295)" d="M0 0h2.572v2.572H0z"/></g><path id="Path_12" data-name="Path 12" d="M180.571 10.119L177 8l-3.569 2.119A12.177 12.177 0 0 0 168 20.271v13.45h18v-13.45a12.177 12.177 0 0 0-5.429-10.152zM177 24.719a3.858 3.858 0 1 1 3.858-3.858A3.858 3.858 0 0 1 177 24.719z" transform="translate(-140.993 -8)" fill="#ffcc70"/><g id="Group_7" data-name="Group 7" transform="translate(6.43 7.716)"><path id="Rectangle_23" data-name="Rectangle 23" class="cls-1" transform="translate(23.149 18.005)" d="M0 0h2.572v6.43H0z"/><path id="Rectangle_24" data-name="Rectangle 24" class="cls-1" transform="translate(23.149 27.007)" d="M0 0h2.572v2.572H0z"/><path id="Rectangle_25" data-name="Rectangle 25" class="cls-1" transform="translate(33.437 18.005)" d="M0 0h2.572v6.43H0z"/><path id="Rectangle_26" data-name="Rectangle 26" class="cls-1" transform="translate(33.437 27.007)" d="M0 0h2.572v2.572H0z"/><path id="Path_13" data-name="Path 13" class="cls-1" d="M59.291 251.574a3.815 3.815 0 0 0 .351 1.587l-14.064 12.982a3.817 3.817 0 0 0-1.719-.422 3.858 3.858 0 1 0 3.858 3.858 3.815 3.815 0 0 0-.351-1.587l14.064-12.983a3.751 3.751 0 0 0 3.261.1l6.621 7.566a3.818 3.818 0 0 0-.446 1.763 3.858 3.858 0 1 0 7.716 0 3.81 3.81 0 0 0-.419-1.714l14.261-15.358a3.809 3.809 0 0 0 1.591.354 3.858 3.858 0 1 0-3.858-3.858 3.81 3.81 0 0 0 .419 1.714L76.315 260.93a3.781 3.781 0 0 0-3.134-.027l-6.621-7.566a3.817 3.817 0 0 0 .446-1.763 3.858 3.858 0 1 0-7.716 0zm-15.433 19.291a1.286 1.286 0 1 1 1.286-1.286 1.287 1.287 0 0 1-1.286 1.286zm50.156-28.293a1.286 1.286 0 1 1-1.286 1.286 1.286 1.286 0 0 1 1.286-1.286zm-18 21.863a1.286 1.286 0 1 1-1.286-1.286 1.287 1.287 0 0 1 1.281 1.286zm-12.86-14.147a1.286 1.286 0 1 1-1.286 1.286 1.287 1.287 0 0 1 1.281-1.286z" transform="translate(-40 -210.421)"/><path id="Path_14" data-name="Path 14" class="cls-1" d="M197.144 66.288A5.144 5.144 0 1 0 192 61.144a5.149 5.149 0 0 0 5.144 5.144zm0-7.716a2.572 2.572 0 1 1-2.572 2.572 2.575 2.575 0 0 1 2.572-2.572z" transform="translate(-167.565 -56)"/></g></svg>