<svg id="_03back-end" data-name="03back-end" xmlns="http://www.w3.org/2000/svg" viewBox="0 0 77.903 77.903"><defs><style>.cls-1{fill:#ffcc70}.cls-2{fill:#4158d0}</style></defs><g id="Group_6" data-name="Group 6" transform="translate(27.643 27.643)"><path id="Path_13" data-name="Path 13" class="cls-1" d="M226.26 188.565H176V176h50.26zm-47.747-2.513h45.234v-7.539h-45.234z" transform="translate(-176 -176)"/><path id="Rectangle_39" data-name="Rectangle 39" class="cls-1" transform="translate(5.026 5.026)" d="M0 0h2.513v2.513H0z"/><path id="Rectangle_40" data-name="Rectangle 40" class="cls-1" transform="translate(10.052 5.026)" d="M0 0h2.513v2.513H0z"/><path id="Rectangle_41" data-name="Rectangle 41" class="cls-1" transform="translate(15.078 5.026)" d="M0 0h2.513v2.513H0z"/><path id="Rectangle_42" data-name="Rectangle 42" class="cls-1" transform="translate(6.283 25.13)" d="M0 0h2.513v10.052H0z"/><path id="Rectangle_43" data-name="Rectangle 43" class="cls-1" transform="translate(21.361 25.13)" d="M0 0h2.513v10.052H0z"/><path id="Rectangle_44" data-name="Rectangle 44" class="cls-1" transform="translate(41.465 25.13)" d="M0 0h2.513v10.052H0z"/><path id="Rectangle_45" data-name="Rectangle 45" class="cls-1" transform="translate(36.439 25.13)" d="M0 0h2.513v10.052H0z"/></g><g id="Group_7" data-name="Group 7" transform="translate(1.257 1.257)"><path id="Rectangle_46" data-name="Rectangle 46" class="cls-1" d="M0 0h42.721v10.052H0z"/><path id="Path_14" data-name="Path 14" class="cls-1" d="M8 130.052h23.874v-3.77h18.847V120H8z" transform="translate(-8 -102.409)"/><path id="Rectangle_47" data-name="Rectangle 47" class="cls-1" transform="translate(0 35.182)" d="M0 0h23.874v10.052H0z"/></g><g id="Group_8" data-name="Group 8"><path id="Path_15" data-name="Path 15" class="cls-2" d="M223.747 272v32.669h-45.234V272H176v35.182h50.26V272z" transform="translate(-148.357 -229.279)"/><path id="Path_16" data-name="Path 16" class="cls-2" d="M248 346.052h7.539V336H248zm2.513-7.539h2.513v5.026h-2.513z" transform="translate(-209.048 -283.227)"/><path id="Path_17" data-name="Path 17" class="cls-2" d="M351.539 346.052V336H344v10.052zm-5.026-7.539h2.513v5.026h-2.513z" transform="translate(-289.97 -283.227)"/><path id="Path_18" data-name="Path 18" class="cls-2" d="M45.234 0H0v12.565h45.234zm-2.513 10.052H2.513V2.513h40.208z"/><path id="Path_19" data-name="Path 19" class="cls-2" d="M2.513 101.026h40.208v5.026h2.513v-7.539h-2.513V96h-2.513v2.513H5.026V96H2.513v2.513H0v12.565h25.13v-2.513H2.513z" transform="translate(0 -80.922)"/><path id="Path_20" data-name="Path 20" class="cls-2" d="M5.026 208H2.513v2.513H0v12.565h25.13v-2.513H2.513v-7.539H25.13v-2.513H5.026z" transform="translate(0 -175.331)"/><path id="Path_21" data-name="Path 21" class="cls-2" d="M307.77 39.539a3.754 3.754 0 0 0 2.637-1.083 31.656 31.656 0 0 1 13.27 14.181l2.277-1.066A34.185 34.185 0 0 0 311.5 36.187a3.76 3.76 0 1 0-3.728 3.352zm0-5.026a1.257 1.257 0 1 1-1.257 1.257 1.259 1.259 0 0 1 1.257-1.257z" transform="translate(-256.253 -26.974)"/><path id="Path_22" data-name="Path 22" class="cls-2" d="M59.542 330.232a3.739 3.739 0 0 0-2.059.619 31.426 31.426 0 0 1-9.83-13.619l-2.353.868a33.925 33.925 0 0 0 10.673 14.759 3.705 3.705 0 0 0-.2 1.142 3.77 3.77 0 1 0 3.77-3.77zm0 5.026A1.257 1.257 0 1 1 60.8 334a1.258 1.258 0 0 1-1.258 1.258z" transform="translate(-38.182 -267.407)"/></g></svg>