<svg id="_03uidesign" data-name="03uidesign" xmlns="http://www.w3.org/2000/svg" viewBox="0 0 79.247 77.903"><defs><style>.cls-2{fill:#4158d0}</style></defs><path id="Subtraction_1" data-name="Subtraction 1" d="M75.889 48.354H3.358A3.358 3.358 0 0 1 0 45V3.358A3.358 3.358 0 0 1 3.358 0h42.729l3.358 1.427 1.427 1.343v2.015L50.2 5.876v2.938l-.42 2.77 1.091 1.763h10.41l3.946-1.259V9.822l.5-1.007-.5-3.694L64.22 2.77 66.738.923 69.677 0h6.212a3.358 3.358 0 0 1 3.358 3.358V45a3.358 3.358 0 0 1-3.358 3.358z" transform="translate(0 29.55)" fill="#ffcc70"/><g id="Group_11" data-name="Group 11"><circle id="Ellipse_1" data-name="Ellipse 1" class="cls-2" cx="1.343" cy="1.343" r="1.343" transform="translate(5.373 24.177)"/><circle id="Ellipse_2" data-name="Ellipse 2" class="cls-2" cx="1.343" cy="1.343" r="1.343" transform="translate(10.745 24.177)"/><circle id="Ellipse_3" data-name="Ellipse 3" class="cls-2" cx="1.343" cy="1.343" r="1.343" transform="translate(16.118 24.177)"/><path id="Path_28" data-name="Path 28" class="cls-2" d="M103.246 8.059V0h-8.058v2.686H68.324V0h-8.059v8.059h8.059V5.373h4.541A16.11 16.11 0 0 0 65.638 18.8H28.029A4.034 4.034 0 0 0 24 22.834v9.4h48.927c.258.169.5.359.77.514v1.518a3.313 3.313 0 0 0-.655 4.685 3.319 3.319 0 0 0-.688 2.013 3.361 3.361 0 0 0 3.358 3.358H87.8a3.361 3.361 0 0 0 3.358-3.358 3.326 3.326 0 0 0-.688-2.015 3.313 3.313 0 0 0-.655-4.685v-1.515c.27-.156.512-.345.77-.514h12.662v-9.4a4.034 4.034 0 0 0-4.03-4.035h-1.343a16.11 16.11 0 0 0-7.228-13.429h4.541v2.687h8.059zM62.952 5.373V2.686h2.686v2.687zM26.686 22.834a1.344 1.344 0 0 1 1.343-1.343h37.859a15.952 15.952 0 0 0 3.9 8.059h-43.1zm55.07-1.343a2.686 2.686 0 1 1 2.686-2.691 2.689 2.689 0 0 1-2.686 2.691zM87.8 36.265a.672.672 0 0 1 0 1.343H75.712a.672.672 0 1 1 0-1.343zm0 5.373H75.712a.672.672 0 1 1 0-1.343H87.8a.672.672 0 0 1 0 1.343zm11.417-20.147a1.344 1.344 0 0 1 1.343 1.343v6.716h-6.835a15.963 15.963 0 0 0 3.9-8.059zM95.188 18.8a13.377 13.377 0 0 1-7.328 11.951l-.731.376v2.447H83.1v-9.588a5.373 5.373 0 1 0-2.686 0v9.593h-4.031v-2.447l-.731-.375A13.427 13.427 0 1 1 95.188 18.8zm5.372-16.114v2.687h-2.686V2.686z" transform="translate(-24)"/><path id="Rectangle_21" data-name="Rectangle 21" class="cls-2" transform="translate(42.981 48.354)" d="M0 0h30.893v2.686H0z"/><path id="Rectangle_22" data-name="Rectangle 22" class="cls-2" transform="translate(42.981 53.726)" d="M0 0h30.893v2.686H0z"/><path id="Rectangle_23" data-name="Rectangle 23" class="cls-2" transform="translate(42.981 59.099)" d="M0 0h30.893v2.686H0z"/><path id="Rectangle_24" data-name="Rectangle 24" class="cls-2" transform="translate(42.981 64.472)" d="M0 0h30.893v2.686H0z"/></g><path id="Rectangle_26" data-name="Rectangle 26" transform="translate(6.548 36.265)" fill="#fff" d="M0 0h32.236v21.491H0z"/></svg>