<svg xmlns="http://www.w3.org/2000/svg" viewBox="0 0 76.756 77.16"><defs><style>.cls-1{fill:#ffcc70}</style></defs><g id="_01sketch" data-name="01sketch"><g id="Group_11" data-name="Group 11" transform="translate(14.868 16.107)"><path id="Path_25" data-name="Path 25" class="cls-1" d="M115.048 120.811a2.794 2.794 0 0 1 .18-1.368l-1.816-1.815 3.717-1.239 1.476.211a2.513 2.513 0 0 1 1.006-4.042l7.868-2.861a17.339 17.339 0 1 0-3.3 26.135l-8.292-8.292z" transform="translate(-97.304 -104)"/><path id="Path_26" data-name="Path 26" class="cls-1" d="M251.768 212.92l2.1 4.194 4.956 3.717 3.166-3.166c.09-.358.178-.717.247-1.084l-1.347-2.358z" transform="translate(-227.845 -196.05)"/></g><path id="Path_27" data-name="Path 27" d="M75.22 61.711l-3.349.838-4.928-10.842L65.4 37.845l2.28.326a3.09 3.09 0 0 0 .451.031 3.166 3.166 0 0 0 .445-6.3l-2.845-.408V6.2a6.2 6.2 0 0 0-6.2-6.2H7.5a6.2 6.2 0 0 0-1.24 12.265V76.82h49.512l.1.34 2.384-.68-2.127-7.442 8.736-2.184 8.052-2.013.68-.17 2.116 6.346 2.349-.784zm-5.794 1.447L58.446 65.9l-2.8-8.387-8.864-7.593-10.847-10.848-.789-6.308a1.594 1.594 0 0 1 .045-.61l.06-.154a1.615 1.615 0 0 1 .571-.736 1.686 1.686 0 0 1 2.105.268 1.557 1.557 0 0 1 .222.323l1.128 2.256 1.937 3.874 6.05 4.537 5.146-5.146-.864-1.513 11.324 1.618 1.63 14.694zM22.379 41.892a13.449 13.449 0 0 0 11.056-2.832l.145 1.166 8.727 8.722a11.127 11.127 0 0 1-19.939-6.82c0-.08.01-.157.011-.236zm39.715-11.4l.055.488-7.631-1.09-6.952-.99-1.009-1.764-5.236.864-1.183-.169-1.956-.28a1.272 1.272 0 0 1-.076-.848 1.243 1.243 0 0 1 .8-.88l9.363-3.4zm-21.729.253a3.95 3.95 0 0 0-.233-.405l17.251 2.46 5.822.831-.23 1.357-22.063-3.147zm-8.466.363l.826.826a4.017 4.017 0 0 0-.037 1.137l.192 1.54a11.022 11.022 0 0 1-1.505-3.428c.171-.031.349-.05.525-.075zM48.51 19.7l-10.455 3.8a3.717 3.717 0 0 0-.449.228 13.561 13.561 0 0 0-2.318-3.974 11.072 11.072 0 0 1 14.7.807zm-12.794 6.372a.329.329 0 0 0-.014.037 3.752 3.752 0 0 0-.078 1.208l-4 1.332c-.192.026-.385.047-.574.082 0-.079-.014-.155-.014-.233a11.094 11.094 0 0 1 2.476-6.991 11.067 11.067 0 0 1 2.204 4.565zM28.563 28.5c0 .306.032.607.052.911a13.524 13.524 0 0 0-8.279 9.279A11.144 11.144 0 1 1 31.75 19.756a13.559 13.559 0 0 0-3.187 8.744zm.451 3.431a13.447 13.447 0 0 0 2.743 5.309 11.075 11.075 0 0 1-9.055 2.2 11.06 11.06 0 0 1 6.312-7.511zm20.306 5.033l-2.289 2.289-3.862-2.9-.908-1.816 6.177.882zm19.4-2.29a.677.677 0 0 1 .067.58.687.687 0 0 1-.748.462l-2.6-.372.23-1.357 2.567.367a.678.678 0 0 1 .48.32zM63.256 6.2v22.1l-2.478-1.446V9.912h-1.239A3.717 3.717 0 1 1 63.256 6.2zm-59.474 0A3.722 3.722 0 0 1 7.5 2.478h47.115a6.07 6.07 0 0 0 0 7.434H7.5A3.722 3.722 0 0 1 3.782 6.2zM53.04 67.255l2.023 7.087H8.738V12.39H58.3v13.021l-3.505-2.044a13.6 13.6 0 0 0-21.276-5.375A13.622 13.622 0 1 0 19.933 41.2c-.021.309-.043.617-.043.931a13.612 13.612 0 0 0 24.187 8.588l1.023 1.022 8.412 7.211 2.519 7.554z" transform="translate(-1.304)" fill="#4158d0"/></g></svg>