<svg id="_02-Brand" data-name="02-Brand" xmlns="http://www.w3.org/2000/svg" viewBox="0 0 70.364 77.903"><defs><style>.cls-2{fill:#4158d0}</style></defs><path id="Path_31" data-name="Path 31" d="M154.72 101.363a21.362 21.362 0 1 0-36.409 15.137 12.336 12.336 0 0 1 3.739 8.74h22.617v-.005a12.086 12.086 0 0 1 3.639-8.637 21.245 21.245 0 0 0 6.414-15.235z" transform="translate(-98.177 -67.437)" fill="#ffcc70"/><g id="Group_12" data-name="Group 12"><path id="Path_32" data-name="Path 32" class="cls-2" d="M182.156 364.4a4.4 4.4 0 0 0-4.4-4.4H156.4a4.391 4.391 0 0 0-3.068 7.539 4.376 4.376 0 0 0 0 6.283 4.391 4.391 0 0 0 3.068 7.539h21.361a4.391 4.391 0 0 0 3.068-7.539 4.376 4.376 0 0 0 0-6.283 4.379 4.379 0 0 0 1.327-3.139zm-2.513 12.565a1.887 1.887 0 0 1-1.885 1.885H156.4a1.885 1.885 0 0 1 0-3.77h21.361a1.887 1.887 0 0 1 1.882 1.883zm0-6.283a1.887 1.887 0 0 1-1.885 1.885H156.4a1.885 1.885 0 0 1 0-3.77h21.361a1.887 1.887 0 0 1 1.882 1.883zm-23.245-4.4a1.885 1.885 0 1 1 0-3.77h21.361a1.885 1.885 0 1 1 0 3.77z" transform="translate(-131.896 -303.457)"/><path id="Path_33" data-name="Path 33" class="cls-2" d="M94.364 7.539V0h-7.539v2.513H31.539V0H24v7.539h7.539V5.026h18.868A31.464 31.464 0 0 0 27.8 34.1a5.033 5.033 0 1 0 2.513.018 28.891 28.891 0 0 1 57.744 0 5.02 5.02 0 1 0 2.513-.018A31.464 31.464 0 0 0 67.958 5.026h18.867v2.513zM26.513 5.026V2.513h2.513v2.513zm5.026 33.926a2.513 2.513 0 1 1-2.513-2.513 2.516 2.516 0 0 1 2.513 2.513zm60.312 0a2.513 2.513 0 1 1-2.513-2.513 2.516 2.516 0 0 1 2.513 2.513zm0-36.439v2.513h-2.513V2.513z" transform="translate(-24)"/><path id="Path_34" data-name="Path 34" class="cls-2" d="M179.77 159.078a3.77 3.77 0 1 0 3.77 3.77v-1.257h7.539v1.257a3.77 3.77 0 1 0 3.77-3.77h-1.257v-7.539h1.257a3.77 3.77 0 1 0-3.77-3.77v1.257h-7.539v-1.256a3.77 3.77 0 1 0-3.77 3.77h1.257v7.539zm1.257 3.77a1.257 1.257 0 1 1-1.257-1.257h1.257zm12.565-15.078a1.257 1.257 0 1 1 1.257 1.257h-1.257zm0 13.822h1.257a1.257 1.257 0 1 1-1.257 1.257zM183.54 151.54h7.539v7.539h-7.539zm-3.77-2.513a1.257 1.257 0 1 1 1.257-1.257v1.257z" transform="translate(-152.126 -121.383)"/></g></svg>