<svg xmlns="http://www.w3.org/2000/svg" viewBox="0 0 77.903 77.903"><defs><style>.cls-2{fill:#4158d0}</style></defs><g id="_03goal" data-name="03goal"><g id="_03goal-2" data-name="03goal" transform="rotate(90 38.952 38.952)"><g id="Group_8" data-name="Group 8"><circle id="Ellipse_1" data-name="Ellipse 1" cx="16.304" cy="16.304" r="16.304" transform="translate(6.271 6.271)" fill="#ffcc70"/><path id="Path_15" data-name="Path 15" class="cls-2" d="M45.149 22.574a22.574 22.574 0 1 0-22.575 22.575 22.6 22.6 0 0 0 22.575-22.575zM22.574 42.641A20.066 20.066 0 1 1 42.64 22.575a20.089 20.089 0 0 1-20.066 20.066z"/><path id="Path_16" data-name="Path 16" class="cls-2" d="M10.033 0a10.033 10.033 0 1 0 10.033 10.033A10.045 10.045 0 0 0 10.033 0zm0 17.558a7.525 7.525 0 1 1 7.525-7.525 7.532 7.532 0 0 1-7.525 7.525z" transform="translate(12.541 12.541)"/><path id="Path_17" data-name="Path 17" class="cls-2" d="M3.762 0a3.762 3.762 0 1 0 3.763 3.762A3.767 3.767 0 0 0 3.762 0zm0 5.016a1.254 1.254 0 1 1 1.255-1.254 1.254 1.254 0 0 1-1.255 1.254z" transform="translate(18.812 18.812)"/><path id="Path_18" data-name="Path 18" class="cls-2" d="M37.629 0a37.484 37.484 0 0 0-25.687 10.169l-5.479-5.48 7.49-.935-.311-2.488-11 1.376-1.376 11 2.488.311.935-7.49 5.479 5.479A37.484 37.484 0 0 0 0 37.629v2.65l36.251-4.028L40.279 0zM11.941 13.714l20.444 20.444-29.876 3.32a34.983 34.983 0 0 1 9.432-23.764zm22.217 18.67L13.714 11.941a34.98 34.98 0 0 1 23.764-9.433z" transform="translate(37.624 37.624)"/></g></g></g></svg>