<svg id="_03vps" data-name="03vps" xmlns="http://www.w3.org/2000/svg" viewBox="0 0 77.903 77.903"><defs><style>.cls-1{fill:#ffcc70}.cls-2{fill:#4158d0}</style></defs><g id="Group_18" data-name="Group 18" transform="translate(1.257 1.257)"><path id="Rectangle_61" data-name="Rectangle 61" class="cls-1" transform="translate(52.773)" d="M0 0h22.617v5.026H0z"/><path id="Rectangle_62" data-name="Rectangle 62" class="cls-1" transform="translate(52.773 10.052)" d="M0 0h22.617v5.026H0z"/><path id="Rectangle_63" data-name="Rectangle 63" class="cls-1" transform="translate(52.773 20.104)" d="M0 0h22.617v5.026H0z"/><path id="Rectangle_64" data-name="Rectangle 64" class="cls-1" transform="translate(52.773 50.26)" d="M0 0h22.617v5.026H0z"/><path id="Rectangle_65" data-name="Rectangle 65" class="cls-1" transform="translate(52.773 60.312)" d="M0 0h22.617v5.026H0z"/><path id="Rectangle_66" data-name="Rectangle 66" class="cls-1" transform="translate(52.773 70.364)" d="M0 0h22.617v5.026H0z"/><path id="Rectangle_67" data-name="Rectangle 67" class="cls-1" transform="translate(0 32.669)" d="M0 0h35.182v10.052H0z"/><path id="Rectangle_68" data-name="Rectangle 68" class="cls-1" transform="translate(0 17.591)" d="M0 0h35.182v10.052H0z"/><path id="Rectangle_69" data-name="Rectangle 69" class="cls-1" transform="translate(0 47.747)" d="M0 0h35.182v10.052H0z"/></g><g id="Group_19" data-name="Group 19"><path id="Path_52" data-name="Path 52" class="cls-2" d="M361.13 7.539V0H336v7.539h2.513v2.513H336v7.539h2.513V20.1H336v7.539h25.13V20.1h-2.513v-2.509h2.513v-7.539h-2.513V7.539zm-22.617-5.026h20.1v2.513h-20.1zm20.1 22.617h-20.1v-2.513h20.1zM356.1 20.1h-15.074v-2.509H356.1zm2.513-5.026h-20.1v-2.509h20.1zm-2.513-5.022h-15.074V7.539H356.1z" transform="translate(-283.227)"/><path id="Path_53" data-name="Path 53" class="cls-2" d="M336 327.539h2.513v2.513H336v7.539h2.513v2.509H336v7.539h25.13V340.1h-2.513v-2.513h2.513v-7.539h-2.513v-2.513h2.513V320H336zm22.617 17.591h-20.1v-2.513h20.1zm-2.517-5.03h-15.074v-2.513H356.1zm2.513-5.026h-20.1v-2.513h20.1zm-2.513-5.026h-15.074v-2.513H356.1zm-17.591-7.539h20.1v2.513h-20.1z" transform="translate(-283.227 -269.74)"/><path id="Path_54" data-name="Path 54" class="cls-2" d="M0 112v12.565h2.513v2.513H0v12.565h2.513v2.513H0v12.565h37.7v-12.565h-2.518v-2.513H37.7v-12.565h-2.518v-2.513H37.7V112zm22.617 6.283a3.77 3.77 0 1 1-3.77-3.77 3.774 3.774 0 0 1 3.77 3.77zm-8.763-3.77a6.156 6.156 0 0 0 0 7.539H2.513v-2.513h2.513v-2.513H2.513v-2.513zm0 15.078a6.156 6.156 0 0 0 0 7.539H2.513v-2.513h2.513V132.1H2.513v-2.513zm8.763 3.77a3.77 3.77 0 1 1-3.77-3.77 3.774 3.774 0 0 1 3.77 3.77zM2.513 149.7h2.513v-2.513H2.513v-2.513h11.341a6.156 6.156 0 0 0 0 7.539H2.513zm20.1-1.257a3.77 3.77 0 1 1-3.77-3.77 3.774 3.774 0 0 1 3.774 3.766zm1.224 3.77a6.156 6.156 0 0 0 0-7.539h11.345v2.513h-2.513v2.513h2.513v2.513zm8.828-10.052H5.026v-2.513h27.643zm-8.828-5.026a6.156 6.156 0 0 0 0-7.539h11.345v2.504h-2.513v2.513h2.513v2.513zm8.828-10.052H5.026v-2.513h27.643zm2.513-10.052h-2.509v2.513h2.513v2.513H23.841a6.156 6.156 0 0 0 0-7.539h11.341z" transform="translate(0 -94.409)"/></g><g id="Group_20" data-name="Group 20" transform="translate(17.591 2.513)"><path id="Path_55" data-name="Path 55" class="cls-2" d="M114.513 28.565H112v-6.282A6.29 6.29 0 0 1 118.283 16h21.361v2.513h-21.361a3.774 3.774 0 0 0-3.77 3.77z" transform="translate(-112 -16)"/><path id="Rectangle_70" data-name="Rectangle 70" class="cls-2" transform="translate(30.156)" d="M0 0h2.513v2.513H0z"/><path id="Path_56" data-name="Path 56" class="cls-2" d="M139.643 412.565h-21.36a6.29 6.29 0 0 1-6.283-6.282V400h2.513v6.283a3.774 3.774 0 0 0 3.77 3.77h21.361z" transform="translate(-112 -339.688)"/><path id="Rectangle_71" data-name="Rectangle 71" class="cls-2" transform="translate(30.156 70.364)" d="M0 0h2.513v2.513H0z"/></g></svg>