<svg id="_04cloud" data-name="04cloud" xmlns="http://www.w3.org/2000/svg" viewBox="0 0 77.903 77.903"><defs><style>.cls-2{fill:#4158d0}</style></defs><path id="Rectangle_72" data-name="Rectangle 72" transform="translate(21.361 13.822)" fill="#ffcc70" d="M0 0h35.182v30.156H0z"/><g id="Group_21" data-name="Group 21" transform="translate(25.13 50.26)"><path id="Path_57" data-name="Path 57" class="cls-2" d="M189.783 391.024h-7.539v-3.169a11.311 11.311 0 0 1-1.1-.454l-2.242 2.24-4.442-4.443 1.777-1.777 2.665 2.666 1.809-1.809.839.5a8.744 8.744 0 0 0 2.26.935l.942.241v2.56h2.513v-2.56l.942-.242a8.744 8.744 0 0 0 2.26-.935l.839-.5 1.809 1.809 1.777-1.778-1.809-1.809.5-.838a8.751 8.751 0 0 0 .937-2.262l.243-.941h2.558v-2.513h-2.558l-.243-.942a8.751 8.751 0 0 0-.937-2.262l2.165-1.278a11.3 11.3 0 0 1 .917 1.968h3.169v7.539h-3.169a11.779 11.779 0 0 1-.454 1.1l2.24 2.242-5.33 5.331-2.242-2.24a11.305 11.305 0 0 1-1.1.454v3.17z" transform="translate(-172.192 -363.381)"/><path id="Path_58" data-name="Path 58" class="cls-2" d="M164.087 339.559a11.3 11.3 0 0 1-.917-1.968H160v-7.539h3.169a11.767 11.767 0 0 1 .454-1.1l-2.24-2.242 5.33-5.331 2.242 2.24a11.305 11.305 0 0 1 1.1-.454V320h7.539v3.169a11.3 11.3 0 0 1 1.1.454l2.242-2.24 4.442 4.443-1.777 1.777-2.665-2.666-1.809 1.809-.839-.5a8.743 8.743 0 0 0-2.26-.935l-.941-.241v-2.559h-2.513v2.559l-.942.243a8.743 8.743 0 0 0-2.26.935l-.839.5-1.809-1.809-1.777 1.778 1.809 1.809-.5.838a8.751 8.751 0 0 0-.937 2.262l-.243.941h-2.558v2.513h2.558l.243.942a8.751 8.751 0 0 0 .937 2.262z" transform="translate(-160 -320)"/></g><g id="Group_22" data-name="Group 22"><path id="Rectangle_73" data-name="Rectangle 73" class="cls-2" transform="translate(50.26 17.591)" d="M0 0h2.513v2.513H0z"/><path id="Rectangle_74" data-name="Rectangle 74" class="cls-2" transform="translate(45.234 17.591)" d="M0 0h2.513v2.513H0z"/><path id="Rectangle_75" data-name="Rectangle 75" class="cls-2" transform="translate(25.13 17.591)" d="M0 0h10.052v2.513H0z"/><path id="Rectangle_76" data-name="Rectangle 76" class="cls-2" transform="translate(50.26 27.643)" d="M0 0h2.513v2.513H0z"/><path id="Rectangle_77" data-name="Rectangle 77" class="cls-2" transform="translate(45.234 27.643)" d="M0 0h2.513v2.513H0z"/><path id="Rectangle_78" data-name="Rectangle 78" class="cls-2" transform="translate(25.13 27.643)" d="M0 0h10.052v2.513H0z"/><path id="Rectangle_79" data-name="Rectangle 79" class="cls-2" transform="translate(50.26 37.695)" d="M0 0h2.513v2.513H0z"/><path id="Rectangle_80" data-name="Rectangle 80" class="cls-2" transform="translate(45.234 37.695)" d="M0 0h2.513v2.513H0z"/><path id="Rectangle_81" data-name="Rectangle 81" class="cls-2" transform="translate(25.13 37.695)" d="M0 0h10.052v2.513H0z"/><path id="Rectangle_82" data-name="Rectangle 82" class="cls-2" transform="translate(0 60.312)" d="M0 0h22.617v2.513H0z"/><path id="Rectangle_83" data-name="Rectangle 83" class="cls-2" transform="translate(0 65.338)" d="M0 0h22.617v2.513H0z"/><path id="Rectangle_84" data-name="Rectangle 84" class="cls-2" transform="translate(55.286 65.338)" d="M0 0h22.617v2.513H0z"/><path id="Rectangle_85" data-name="Rectangle 85" class="cls-2" transform="translate(55.286 60.312)" d="M0 0h22.617v2.513H0z"/><path id="Path_59" data-name="Path 59" class="cls-2" d="M150.617 115.182v-2.513H165.7V80H128v32.669h15.078v2.513h2.513v-2.513h2.509v2.513zm12.565-15.082h-32.669v-7.535h32.669zm0-17.591v7.539h-32.669v-7.535zm-32.669 20.1h32.669v7.539h-32.669z" transform="translate(-107.896 -67.435)"/><path id="Path_60" data-name="Path 60" class="cls-2" d="M221.026 376a5.026 5.026 0 1 0 5.026 5.026 5.031 5.031 0 0 0-5.026-5.026zm0 7.539a2.513 2.513 0 1 1 2.513-2.513 2.516 2.516 0 0 1-2.513 2.513z" transform="translate(-182.074 -316.944)"/><path id="Path_61" data-name="Path 61" class="cls-2" d="M37.822 37.7v-2.518a11.309 11.309 0 0 1 0-22.617c.148 0 .294.011.441.021l1.113.067.337-.839A8.764 8.764 0 0 1 51.659 7.15l.774.371.627-.587a16.292 16.292 0 0 1 25.9 4.936l.354.748 1.229-.052a11.309 11.309 0 1 1 0 22.617V37.7a13.821 13.821 0 0 0 .318-27.639A18.941 18.941 0 0 0 64.208 0a18.748 18.748 0 0 0-12.244 4.544 11.276 11.276 0 0 0-14.216 5.509 13.822 13.822 0 0 0 .074 27.647z" transform="translate(-20.23)"/></g></svg>