<svg id="design" xmlns="http://www.w3.org/2000/svg" viewBox="0 0 113.396 135.203"><defs><style>.cls-1{fill:#453c90}</style></defs><g id="Group_9" data-name="Group 9" transform="translate(0 45.795)"><path id="Path_19" data-name="Path 19" class="cls-1" d="M144.673 168h-34.891v4.361h34.891a4.366 4.366 0 0 1 4.361 4.361v56.7a4.366 4.366 0 0 1-4.361 4.361h-95.95a4.366 4.366 0 0 1-4.361-4.361v-56.7a4.366 4.366 0 0 1 4.361-4.361h34.891V168H48.723A8.732 8.732 0 0 0 40 176.723v56.7a8.732 8.732 0 0 0 8.723 8.723h28.349v10.9h-8.723v4.361h56.7v-4.361h-8.723v-10.9h28.349a8.732 8.732 0 0 0 8.723-8.723v-56.7a8.732 8.732 0 0 0-8.725-8.723zm-32.71 85.047h-30.53v-10.9h30.53z" transform="translate(-40 -168)"/><path id="Path_20" data-name="Path 20" class="cls-1" d="M72 256.7h95.951V200h-37.072v4.361h32.71v47.975H76.361v-47.975h32.71V200H72z" transform="translate(-63.277 -191.277)"/></g><path id="Path_21" data-name="Path 21" d="M207.265 64L192 83.626l4.361 26.168h21.807l4.361-26.168zm0 26.168a4.361 4.361 0 1 1 4.361-4.361 4.36 4.36 0 0 1-4.361 4.361z" transform="translate(-150.567 -46.554)" fill="#ffcc70"/><g id="Group_10" data-name="Group 10" transform="translate(15.265)"><path id="Path_22" data-name="Path 22" class="cls-1" d="M102.542 13.084a6.533 6.533 0 0 0 6.141-4.361h13.106a30.54 30.54 0 0 0-14.537 21.807h-4.71v13.084h13.084V30.53h-3.966a26.134 26.134 0 0 1 51.547 0h-3.967v13.084h13.084V30.53h-4.71a30.546 30.546 0 0 0-14.537-21.807H164a6.542 6.542 0 1 0 0-4.361h-55.32a6.531 6.531 0 1 0-6.141 8.723zm8.723 26.168H106.9v-4.361h4.361zm56.7 0H163.6v-4.361h4.361zm2.181-34.891a2.181 2.181 0 1 1-2.181 2.181 2.181 2.181 0 0 1 2.179-2.181zm-67.6 0a2.181 2.181 0 1 1-2.181 2.181 2.181 2.181 0 0 1 2.177-2.181z" transform="translate(-96)"/><path id="Rectangle_20" data-name="Rectangle 20" class="cls-1" transform="translate(58.879 82.866)" d="M0 0h4.361v4.361H0z"/><path id="Rectangle_21" data-name="Rectangle 21" class="cls-1" transform="translate(67.601 82.866)" d="M0 0h4.361v4.361H0z"/><path id="Path_23" data-name="Path 23" class="cls-1" d="M228.361 64v15.666a6.542 6.542 0 1 0 4.361 0V64zm2.181 23.988a2.181 2.181 0 1 1 2.181-2.181 2.182 2.182 0 0 1-2.181 2.181z" transform="translate(-189.109 -46.554)"/><path id="Path_24" data-name="Path 24" class="cls-1" d="M184 230.542a6.533 6.533 0 0 0 4.361 6.141v15.666a4.366 4.366 0 0 0 4.361 4.361h17.446a4.366 4.366 0 0 0 4.361-4.361v-15.666a6.526 6.526 0 0 0-2.18-12.683h-21.807a6.55 6.55 0 0 0-6.542 6.542zm8.723 21.807v-15.265h17.446v15.265zm21.807-21.807a2.181 2.181 0 0 1-2.181 2.181h-21.807a2.181 2.181 0 0 1 0-4.361h21.807a2.182 2.182 0 0 1 2.181 2.18z" transform="translate(-160.012 -162.941)"/><path id="Rectangle_22" data-name="Rectangle 22" class="cls-1" transform="translate(76.324 82.866)" d="M0 0h4.361v4.361H0z"/><path id="Rectangle_23" data-name="Rectangle 23" class="cls-1" transform="translate(2.181 82.866)" d="M0 0h4.361v4.361H0z"/><path id="Rectangle_24" data-name="Rectangle 24" class="cls-1" transform="translate(10.903 82.866)" d="M0 0h4.361v4.361H0z"/><path id="Rectangle_25" data-name="Rectangle 25" class="cls-1" transform="translate(19.626 82.866)" d="M0 0h4.361v4.361H0z"/></g></svg>