<svg id="development" xmlns="http://www.w3.org/2000/svg" viewBox="0 0 114.484 114.484"><defs><style>.cls-2{fill:#453c90}</style></defs><path id="Rectangle_21" data-name="Rectangle 21" transform="translate(40.623 22.158)" fill="#ffcc70" d="M0 0h66.475v48.009H0z"/><g id="Group_13" data-name="Group 13" transform="translate(33.237)"><path id="Path_35" data-name="Path 35" class="cls-2" d="M225.247 18.465H144V0h81.247zm-77.554-3.693h73.861V3.693h-73.861z" transform="translate(-144)"/><path id="Rectangle_22" data-name="Rectangle 22" class="cls-2" transform="translate(7.386 7.386)" d="M0 0h3.693v3.693H0z"/><path id="Rectangle_23" data-name="Rectangle 23" class="cls-2" transform="translate(14.772 7.386)" d="M0 0h3.693v3.693H0z"/><path id="Rectangle_24" data-name="Rectangle 24" class="cls-2" transform="translate(22.158 7.386)" d="M0 0h3.693v3.693H0z"/></g><g id="Group_14" data-name="Group 14" transform="translate(0 22.158)"><path id="Path_36" data-name="Path 36" class="cls-2" d="M0 389.54a9.243 9.243 0 0 0 9.233 9.233H24v7.386h-7.381v3.693h51.7v-3.693h-7.384v-7.386h14.772a9.243 9.243 0 0 0 9.233-9.233V384H0zm57.242 16.619H27.7v-7.386h29.542zM3.693 387.693h77.554v1.846a5.546 5.546 0 0 1-5.54 5.54H9.233a5.546 5.546 0 0 1-5.54-5.54z" transform="translate(0 -317.525)"/><path id="Rectangle_25" data-name="Rectangle 25" class="cls-2" transform="translate(81.247 59.088)" d="M0 0h3.693v3.693H0z"/><path id="Path_37" data-name="Path 37" class="cls-2" d="M3.693 177.233a5.546 5.546 0 0 1 5.54-5.54h20.311V168H9.233A9.243 9.243 0 0 0 0 177.233v36.93h3.693z" transform="translate(0 -151.381)"/><path id="Path_38" data-name="Path 38" class="cls-2" d="M221.554 96v51.7h-73.861V96H144v55.4h81.247V96z" transform="translate(-110.763 -96)"/><path id="Path_39" data-name="Path 39" class="cls-2" d="M209.223 147.581l-15.313-15.313 15.313-15.313-2.611-2.611-17.924 17.924 17.924 17.924z" transform="translate(-145.136 -110.11)"/><path id="Path_40" data-name="Path 40" class="cls-2" d="M364.955 150.192l17.924-17.924-17.924-17.924-2.611 2.611 15.313 15.313-15.313 15.313z" transform="translate(-278.71 -110.11)"/><path id="Path_41" data-name="Path 41" class="cls-2" d="M.01.1h38.557v3.695H.01z" transform="rotate(106.68 39.05 32.368)"/></g></svg>