<svg id="host" xmlns="http://www.w3.org/2000/svg" viewBox="0 0 136.19 136.5"><defs><style>.cls-1{fill:#ffcc70}.cls-2{fill:#453c90}</style></defs><g id="Group_9" data-name="Group 9" transform="translate(2.202 2.202)"><path id="Path_24" data-name="Path 24" class="cls-1" d="M91.661 38.823H16.806A8.807 8.807 0 0 1 8 30.016v-13.21A8.807 8.807 0 0 1 16.806 8h74.855a8.807 8.807 0 0 1 8.806 8.806v13.21a8.807 8.807 0 0 1-8.806 8.807z" transform="translate(-8 -8)"/><path id="Path_25" data-name="Path 25" class="cls-1" d="M100.468 185.917v-9.11A8.807 8.807 0 0 0 91.661 168H16.806A8.807 8.807 0 0 0 8 176.806v13.21a8.807 8.807 0 0 0 8.806 8.806H77.4a35.155 35.155 0 0 1 23.068-12.905z" transform="translate(-8 -123.968)"/><path id="Path_26" data-name="Path 26" class="cls-1" d="M69.645 336.806A35.2 35.2 0 0 1 70.8 328H16.806A8.807 8.807 0 0 0 8 336.806v13.21a8.807 8.807 0 0 0 8.806 8.806H77.4a35.052 35.052 0 0 1-7.755-22.016z" transform="translate(-8 -239.936)"/></g><g id="Group_10" data-name="Group 10"><path id="Path_27" data-name="Path 27" class="cls-2" d="M4.4 112.282V99.073a6.613 6.613 0 0 1 6.6-6.6h46.242v-4.4H11.008v-8.815h52.839v-4.4H11.008a6.613 6.613 0 0 1-6.6-6.6V55.04a6.613 6.613 0 0 1 6.6-6.6h74.855a6.613 6.613 0 0 1 6.6 6.6v2.2h4.4v-2.2a11.014 11.014 0 0 0-6.6-10.075V34.292a11.014 11.014 0 0 0 6.6-10.075V11.008A11.021 11.021 0 0 0 85.863 0H11.008A11.021 11.021 0 0 0 0 11.008v13.21a11.014 11.014 0 0 0 6.6 10.074v10.674A11.014 11.014 0 0 0 0 55.04v13.21a11.014 11.014 0 0 0 6.6 10.075V89A11.014 11.014 0 0 0 0 99.073v13.21a11.021 11.021 0 0 0 11.008 11.007h52.839v-4.4H11.008a6.613 6.613 0 0 1-6.608-6.608zm0-88.064v-13.21a6.613 6.613 0 0 1 6.6-6.6h74.863a6.613 6.613 0 0 1 6.6 6.6v13.21a6.613 6.613 0 0 1-6.6 6.6H11.008a6.613 6.613 0 0 1-6.608-6.6zM11 35.226h74.863v8.806H11.008z"/><path id="Path_28" data-name="Path 28" class="cls-2" d="M32 374.6a6.6 6.6 0 1 0 6.6-6.6 6.613 6.613 0 0 0-6.6 6.6zm8.806 0a2.2 2.2 0 1 1-2.2-2.2 2.2 2.2 0 0 1 2.2 2.2z" transform="translate(-23.194 -266.726)"/><path id="Path_29" data-name="Path 29" class="cls-2" d="M96 374.6a6.6 6.6 0 1 0 6.6-6.6 6.613 6.613 0 0 0-6.6 6.6zm8.806 0a2.2 2.2 0 1 1-2.2-2.2 2.2 2.2 0 0 1 2.2 2.2z" transform="translate(-69.581 -266.726)"/><path id="Rectangle_48" data-name="Rectangle 48" class="cls-2" transform="translate(44.032 105.677)" d="M0 0h13.21v4.403H0z"/><path id="Path_30" data-name="Path 30" class="cls-2" d="M32 214.6a6.6 6.6 0 1 0 6.6-6.6 6.613 6.613 0 0 0-6.6 6.6zm8.806 0a2.2 2.2 0 1 1-2.2-2.2 2.2 2.2 0 0 1 2.2 2.2z" transform="translate(-23.194 -150.758)"/><path id="Path_31" data-name="Path 31" class="cls-2" d="M96 214.6a6.6 6.6 0 1 0 6.6-6.6 6.613 6.613 0 0 0-6.6 6.6zm8.806 0a2.2 2.2 0 1 1-2.2-2.2 2.2 2.2 0 0 1 2.2 2.2z" transform="translate(-69.581 -150.758)"/><path id="Rectangle_49" data-name="Rectangle 49" class="cls-2" transform="translate(44.032 61.645)" d="M0 0h26.419v4.403H0z"/><path id="Path_32" data-name="Path 32" class="cls-2" d="M45.21 54.6a6.6 6.6 0 1 0-6.6 6.6 6.613 6.613 0 0 0 6.6-6.6zm-8.806 0a2.2 2.2 0 1 1 2.2 2.2 2.2 2.2 0 0 1-2.204-2.2z" transform="translate(-23.194 -34.79)"/><path id="Path_33" data-name="Path 33" class="cls-2" d="M102.6 61.21A6.6 6.6 0 1 0 96 54.6a6.613 6.613 0 0 0 6.6 6.61zm0-8.806a2.2 2.2 0 1 1-2.2 2.2 2.2 2.2 0 0 1 2.2-2.204z" transform="translate(-69.581 -34.79)"/><path id="Rectangle_50" data-name="Rectangle 50" class="cls-2" transform="translate(44.032 17.613)" d="M0 0h26.419v4.403H0z"/><path id="Path_34" data-name="Path 34" class="cls-2" d="M261.427 224a37.427 37.427 0 1 0 37.427 37.427A37.469 37.469 0 0 0 261.427 224zm0 70.452a33.024 33.024 0 1 1 33.024-33.024 33.062 33.062 0 0 1-33.024 33.024z" transform="translate(-162.665 -162.355)"/><g id="Path_35" data-name="Path 35" fill="#453c90"><path d="M38.31 28.646h-3.628v-2.564h3.627c4.467 0 8.1-3.634 8.1-8.1 0-4.466-3.633-8.1-8.1-8.1a8.11 8.11 0 0 0-6.076 2.742l-.33.375-.375-.33-1.172-1.035-.375-.33.33-.376a10.705 10.705 0 0 1 5.528-3.307 8.087 8.087 0 0 0-7.693-5.557c-1.98 0-3.916.75-5.4 2.076a8.405 8.405 0 0 1 2.422 2.626 8.276 8.276 0 0 1 1.132 4.18v.5h-2.563v-.5a5.761 5.761 0 0 0-5.755-5.755 5.761 5.761 0 0 0-5.755 5.755 5.761 5.761 0 0 0 5.755 5.754h.5v2.564h-.5c-4.587 0-8.318-3.732-8.318-8.318 0-.35.022-.703.067-1.053-4.266.226-7.667 3.768-7.667 8.089 0 4.466 3.633 8.1 8.1 8.1h3.627v2.564h-3.627C4.284 28.646-.5 23.862-.5 17.982S4.284 7.318 10.164 7.318c.112 0 .223.004.332.008a8.32 8.32 0 0 1 7.486-4.699c.779 0 1.557.113 2.318.336A10.656 10.656 0 0 1 28.146-.5c4.84 0 9.006 3.194 10.272 7.819 5.83.058 10.555 4.82 10.555 10.663 0 5.88-4.784 10.664-10.664 10.664z" transform="translate(74.865 85.145)"/><path d="M28.146 0c-2.96 0-5.766 1.313-7.687 3.536a7.779 7.779 0 0 0-2.477-.409c-3.21 0-5.97 1.945-7.174 4.718-.214-.013-.43-.027-.644-.027C4.56 7.818 0 12.378 0 17.982s4.56 10.164 10.164 10.164h3.127v-1.564h-3.127c-4.742 0-8.6-3.858-8.6-8.6 0-4.742 3.858-8.6 8.6-8.6.052 0 .104.005.156.006a7.864 7.864 0 0 0-.156 1.558c0 4.31 3.507 7.818 7.818 7.818V17.2a6.262 6.262 0 0 1-6.255-6.254 6.262 6.262 0 0 1 6.255-6.255 6.262 6.262 0 0 1 6.255 6.255H25.8c0-2.864-1.552-5.366-3.854-6.728a8.623 8.623 0 0 1 6.2-2.654 8.566 8.566 0 0 1 8.324 6.434 10.162 10.162 0 0 0-5.783 3.261l1.172 1.034a8.61 8.61 0 0 1 6.45-2.911c4.742 0 8.6 3.858 8.6 8.6 0 4.742-3.858 8.6-8.6 8.6h-3.127v1.564h3.127c5.604 0 10.164-4.56 10.164-10.164S43.913 7.818 38.31 7.818c-.093 0-.184.013-.276.015A10.12 10.12 0 0 0 28.146 0m0-1c2.523 0 4.992.859 6.952 2.419a11.185 11.185 0 0 1 3.697 5.41c5.931.255 10.678 5.16 10.678 11.153 0 6.156-5.008 11.164-11.164 11.164h-4.127v-3.564h4.127c4.191 0 7.6-3.41 7.6-7.6 0-4.19-3.409-7.6-7.6-7.6a7.61 7.61 0 0 0-5.7 2.573l-.663.75-.75-.662-1.171-1.034-.75-.662.662-.75a11.196 11.196 0 0 1 5.244-3.319 7.59 7.59 0 0 0-7.035-4.714 7.627 7.627 0 0 0-4.594 1.56 8.897 8.897 0 0 1 2.047 2.39 8.777 8.777 0 0 1 1.201 4.432v1h-3.563v-1a5.26 5.26 0 0 0-5.255-5.255 5.26 5.26 0 0 0-5.255 5.255 5.26 5.26 0 0 0 5.255 5.254h1v3.564h-1c-4.862 0-8.818-3.956-8.818-8.818 0-.167.004-.334.014-.5-3.725.483-6.614 3.678-6.614 7.536 0 4.19 3.409 7.6 7.6 7.6h4.127v3.564h-4.127C4.008 29.146-1 24.138-1 17.982S4.008 6.818 10.164 6.818h.03a8.819 8.819 0 0 1 7.788-4.69c.725 0 1.45.091 2.16.273A11.151 11.151 0 0 1 28.147-1z" transform="translate(74.865 85.145)"/></g></g></svg>