<svg id="idea" xmlns="http://www.w3.org/2000/svg" viewBox="0 0 126.784 135.84"><defs><style>.cls-2{fill:#453c90}</style></defs><g id="Group_3" data-name="Group 3"><path id="Path_4" data-name="Path 4" d="M139.115 93.367a36.223 36.223 0 0 0-36.224-36.224 28.224 28.224 0 0 0-27.56 34.646l-8.664 15.162 9.056 2.264v15.848h9.056v11.32H121v-11.689a36.159 36.159 0 0 0 18.115-31.327z" transform="translate(-39.499 -29.975)" fill="#ffcc70"/><path id="Path_5" data-name="Path 5" class="cls-2" d="M133.492 146.608H126.7v-22.524a10.922 10.922 0 0 0 2.264-6.624v-.566a11.05 11.05 0 0 0-11.037-11.037h-5.094a6.517 6.517 0 0 1-6.509-6.509v-.566a6.517 6.517 0 0 1 6.509-6.509h5.094a6.517 6.517 0 0 1 6.509 6.509v.283h4.528v-.283a11.05 11.05 0 0 0-11.037-11.037h-.283v-6.793h-4.528v6.792h-.283A11.05 11.05 0 0 0 101.8 98.781v.566a11.05 11.05 0 0 0 11.037 11.037h5.094a6.517 6.517 0 0 1 6.509 6.509v.566a6.517 6.517 0 0 1-6.509 6.509h-5.094c-3.589 0-6.509-2.264-6.509-6.792H101.8a12.337 12.337 0 0 0 2.264 6.908v22.524h-6.796a6.779 6.779 0 0 0-3.62 12.518 6.691 6.691 0 0 0 2.264 9.056 6.718 6.718 0 0 0-.908 3.33 6.8 6.8 0 0 0 6.796 6.788h27.168a6.8 6.8 0 0 0 6.792-6.792 6.718 6.718 0 0 0-.908-3.33 6.691 6.691 0 0 0 2.264-9.056 6.778 6.778 0 0 0-3.619-12.516zm-24.9-18.966a10.968 10.968 0 0 0 4.245.853h.283v6.792h4.528V128.5h.283a10.97 10.97 0 0 0 4.245-.853v18.965h-13.588v-18.969zm-11.32 23.493h36.224a2.264 2.264 0 0 1 0 4.528H97.268a2.264 2.264 0 1 1 0-4.528zm36.224 11.32a2.265 2.265 0 0 1-2.264 2.264h-31.7a2.264 2.264 0 1 1 0-4.528h31.7a2.265 2.265 0 0 1 2.26 2.265zm-4.528 11.32H101.8a2.264 2.264 0 1 1 0-4.528h27.168a2.264 2.264 0 0 1 0 4.528z" transform="translate(-51.988 -42.464)"/><path id="Rectangle_3" data-name="Rectangle 3" class="cls-2" transform="translate(61.128)" d="M0 0h4.528v15.848H0z"/><path id="Rectangle_4" data-name="Rectangle 4" class="cls-2" transform="rotate(-29.993 32.833 -50.691)" d="M0 0h4.528v15.848H0z"/><path id="Rectangle_5" data-name="Rectangle 5" class="cls-2" transform="rotate(-60 32.83 10.457)" d="M0 0h4.528v15.847H0z"/><path id="Rectangle_6" data-name="Rectangle 6" class="cls-2" transform="translate(0 61.128)" d="M0 0h15.848v4.528H0z"/><path id="Rectangle_7" data-name="Rectangle 7" class="cls-2" transform="rotate(-29.993 177.504 32.831)" d="M0 0h15.848v4.528H0z"/><path id="Rectangle_8" data-name="Rectangle 8" class="cls-2" transform="rotate(-60 128.91 -45.01)" d="M0 0h4.528v15.847H0z"/><path id="Rectangle_9" data-name="Rectangle 9" class="cls-2" transform="translate(110.936 61.128)" d="M0 0h15.848v4.528H0z"/><path id="Rectangle_10" data-name="Rectangle 10" class="cls-2" transform="rotate(-29.993 122.012 -174.233)" d="M0 0h15.848v4.528H0z"/><path id="Rectangle_11" data-name="Rectangle 11" class="cls-2" transform="rotate(-60.007 60.857 -63.235)" d="M0 0h15.848v4.528H0z"/></g></svg>